<svg xmlns="http://www.w3.org/2000/svg" viewBox="0 0 438.92 368.5"><defs><style>.cls-1,.cls-2{fill:#fff;}.cls-2{fill-rule:evenodd;}</style></defs><g id="Layer_2" data-name="Layer 2"><g id="Layer_1-2" data-name="Layer 1"><path class="cls-1" d="M39,125.4V98.89H14.71V125.4H0v16.25H14.71v52.16q0,6.66,2.22,10.77a16,16,0,0,0,6,6.32,24.45,24.45,0,0,0,8.89,2.91,65.45,65.45,0,0,0,10.77.86q3.6,0,7.35-.18a55.69,55.69,0,0,0,6.85-.68V195a32.65,32.65,0,0,1-3.59.51c-1.26.12-2.57.18-3.94.18-4.1,0-6.83-.69-8.21-2.06s-2-4.1-2-8.2V141.65H56.78V125.4Z"/><path class="cls-1" d="M62.16,152.59H86.44q.69-7.18,4.79-10.26t11.29-3.08a32.68,32.68,0,0,1,6,.51,11.16,11.16,0,0,1,5,1.71,8,8,0,0,1,3.42,3.6,11.73,11.73,0,0,1,1.37,6.15A6.84,6.84,0,0,1,116,157a17.36,17.36,0,0,1-6.5,2.91,65.17,65.17,0,0,1-9.41,1.53q-5.3.51-10.77,1.37a93.3,93.3,0,0,0-10.95,2.4,30.28,30.28,0,0,0-9.57,4.27A23.08,23.08,0,0,0,62,177.38q-2.57,4.8-2.57,12.32a28.69,28.69,0,0,0,2.23,11.8,23,23,0,0,0,6.5,8.21,26.75,26.75,0,0,0,9.57,4.78A43.28,43.28,0,0,0,89.52,216a54.85,54.85,0,0,0,16.08-2.39,31.73,31.73,0,0,0,13.68-8.38c.11,1.49.28,3,.51,4.45s.74,2.74,1.2,4.1h24.62a20.6,20.6,0,0,1-2.39-8.21,91.38,91.38,0,0,1-.69-11.45v-46q0-8-3.59-12.82a24.2,24.2,0,0,0-9.23-7.7A39.84,39.84,0,0,0,117.23,124a91.71,91.71,0,0,0-13.52-1A71.28,71.28,0,0,0,89,124.55a40,40,0,0,0-13,4.78,29,29,0,0,0-9.58,9.07q-3.77,5.64-4.27,14.19m56.09,18v9.06a37.66,37.66,0,0,1-.52,5.47,17.59,17.59,0,0,1-2.22,6.84,16.26,16.26,0,0,1-5.81,5.65Q105.76,200,98.58,200a30.81,30.81,0,0,1-5.64-.51,14.84,14.84,0,0,1-4.79-1.71,10,10,0,0,1-3.25-3.59,11.56,11.56,0,0,1-1.19-5.48A11.91,11.91,0,0,1,84.9,183,10.59,10.59,0,0,1,88,179.44,16.35,16.35,0,0,1,92.6,177a49.64,49.64,0,0,1,5.47-1.36c1.94-.35,3.88-.63,5.82-.86s3.76-.51,5.47-.85a46.4,46.4,0,0,0,5-1.2,11.86,11.86,0,0,0,3.93-2.22"/><path class="cls-1" d="M159.72,141.65v72.16H184V141.65h16.76V125.4H184v-5.3q0-5.47,2.05-7.7c1.49-1.6,3.88-2.39,7.18-2.39a75.17,75.17,0,0,1,8.9.51V92.39l-6.33-.34a61.53,61.53,0,0,0-6.5-.34q-14.88,0-22.23,7.52t-7.35,19.33v6.84H145.18v16.25Z"/><path class="cls-1" d="M263.94,160.11h-39.5a31.12,31.12,0,0,1,1-5.81,20,20,0,0,1,3.26-6.16,18.55,18.55,0,0,1,6.15-4.78,20.9,20.9,0,0,1,9.75-2.06q8.9,0,13.16,4.79,4.46,4.78,6.16,14m-39.5,15.39h63.79a62.74,62.74,0,0,0-1.71-19.66,47.32,47.32,0,0,0-7.87-16.76A37.65,37.65,0,0,0,265,127.45,41.46,41.46,0,0,0,245.3,123a46.51,46.51,0,0,0-18.47,3.58,43.29,43.29,0,0,0-14.19,9.92,42.41,42.41,0,0,0-9.23,14.71,51.49,51.49,0,0,0-3.25,18.47,54.94,54.94,0,0,0,3.08,18.81,43.6,43.6,0,0,0,9.06,14.71,39.89,39.89,0,0,0,14.19,9.57A51.62,51.62,0,0,0,245.3,216q15,0,25.66-6.84t15.73-22.74H265.31q-1.2,4.11-6.5,7.87a22,22,0,0,1-12.65,3.59q-10.26,0-15.74-5.3t-6-17.11"/><path class="cls-1" d="M303.65,185.1q.44,7.56,3.58,12.29,6,8.84,21.13,8.84a37.53,37.53,0,0,0,12.36-1.94q10.77-3.75,10.77-13.44,0-7.28-4.54-10.36t-14.41-5.27l-12.05-2.72q-11.81-2.66-16.71-5.87-8.49-5.56-8.48-16.66,0-12,8.29-19.68t23.5-7.69q14,0,23.74,6.78T360.64,151H349.31c-.6-4.77-1.9-8.43-3.87-11q-5.52-7-18.71-7-10.67,0-15.32,4.48a14,14,0,0,0-4.67,10.42,10.18,10.18,0,0,0,5.45,9.56q3.57,1.94,16.17,4.85l12.48,2.84q9,2.07,13.92,5.63,8.49,6.25,8.48,18.11,0,14.78-10.78,21.13t-24.95,6.36q-16.59,0-26-8.48t-9.21-22.82Z"/><path class="cls-1" d="M412.82,177.35,399.32,138,385,177.35ZM393,124.84h13.62l32.28,89h-13.2l-9-26.65H381.51l-9.63,26.65H359.53Z"/><path class="cls-1" d="M341.27,84.49c0,15.8-23.19,28.6-51.79,28.6s-51.79-12.8-51.79-28.6,23.19-28.6,51.79-28.6,51.79,12.81,51.79,28.6"/><path class="cls-1" d="M430.52,64c0,12.62-18.52,22.84-41.35,22.84S347.81,76.65,347.81,64,366.33,41.2,389.17,41.2,430.52,51.42,430.52,64"/><path class="cls-1" d="M366.36,28.48c0,9.08-13.32,16.44-29.76,16.44s-29.76-7.36-29.76-16.44,13.32-16.43,29.76-16.43,29.76,7.36,29.76,16.43"/><path class="cls-1" d="M416.81,11.53c0,6.36-9.34,11.52-20.87,11.52s-20.87-5.16-20.87-11.52S384.42,0,395.94,0s20.87,5.16,20.87,11.53"/><path class="cls-1" d="M166.56,317.37a21.93,21.93,0,0,0-6.83-1c-5,0-10,2.33-10,8.72,0,9.44,12.5,7.19,12.5,12.63,0,2.58-2.89,3.68-5.06,3.68a13.91,13.91,0,0,1-6.46-1.75l-.54,5.15a25.41,25.41,0,0,0,7.32,1.1c5.77,0,10.72-2.37,10.72-8.62,0-9.58-12.51-7.49-12.51-12.44,0-3.1,2.53-4,4.49-4a14.76,14.76,0,0,1,5.81,1.23l.53-4.71"/><path class="cls-2" d="M176.31,334.35c0-3.15,1.72-6.26,5.27-6.26s5.32,3,5.32,6.26c0,3.52-1.11,7.28-5.32,7.28s-5.27-3.81-5.27-7.28m-5.73.65c0,6.06,4,10.88,11,10.88s11-4.82,11-10.88c0-6.95-4.79-11.17-11-11.17s-11,4.22-11,11.17"/><path class="cls-1" d="M215.25,324.32h-5.48v10.32c0,2.69-.86,7-4.83,7-3.51,0-3.56-3.48-3.56-6.05V324.32H195.9v13.3c0,4.74,2.17,8.26,7.16,8.26a8.76,8.76,0,0,0,6.92-3.36h.08v2.87h5.19V324.32"/><path class="cls-1" d="M221.68,339.05c0,4.17,2.37,6.83,6.67,6.83a14.76,14.76,0,0,0,4.05-.49l-.17-4.33a4.94,4.94,0,0,1-2.5.57c-2.08,0-2.58-1.68-2.58-3.48v-9.81H232v-4h-4.87v-6l-5.47,1.77v4.2h-4.05v4h4.05v10.71"/><path class="cls-1" d="M234.77,345.39h5.48V335.08c0-2.7.86-7,4.83-7,3.52,0,3.55,3.47,3.55,6.05v11.25h5.48V332.11c0-4.75-2.17-8.28-7.15-8.28a7.83,7.83,0,0,0-6.63,3.36h-.08V314.71h-5.48v30.68"/><path class="cls-2" d="M266.64,345.39h5.93l2.5-6.55h11.56l2.45,6.55h6.35l-11.2-28.55h-6.47Zm18.4-11h-8.35l4.14-11.78h.08Z"/><path class="cls-1" d="M317,324.32h-5.48v10.32c0,2.69-.87,7-4.83,7-3.51,0-3.56-3.48-3.56-6.05V324.32h-5.48v13.3c0,4.74,2.17,8.26,7.15,8.26a8.74,8.74,0,0,0,6.92-3.36h.08v2.87H317V324.32"/><path class="cls-1" d="M334.46,324.61a25.55,25.55,0,0,0-6-.78c-4.28,0-8.26,2-8.26,6.55,0,7.61,9.53,4.79,9.53,8.91,0,2-2.21,2.59-3.6,2.59a12.08,12.08,0,0,1-5.4-1.4l-.31,4.5a24.07,24.07,0,0,0,6.2.9c4.46,0,8.84-2,8.84-6.87,0-7.6-9.53-5.48-9.53-8.84,0-1.79,1.76-2.32,3.23-2.32a13.5,13.5,0,0,1,4.91.9l.36-4.14"/><path class="cls-1" d="M340.52,339.05c0,4.17,2.37,6.83,6.67,6.83a14.7,14.7,0,0,0,4.05-.49l-.17-4.33a4.93,4.93,0,0,1-2.49.57c-2.08,0-2.57-1.68-2.57-3.48v-9.81h4.86v-4H346v-6l-5.49,1.77v4.2h-4v4h4v10.71"/><path class="cls-1" d="M353.73,345.39h5.49v-7.73c0-3,0-8.59,4.45-8.59a5.47,5.47,0,0,1,2.45.46V324a5.68,5.68,0,0,0-1.66-.17c-3.28,0-5.53,3.32-5.77,5.28h-.09v-4.79h-4.87v21.07"/><path class="cls-2" d="M372.4,339.29c0-3.23,3.63-3.63,6.09-3.63h2.36a6.9,6.9,0,0,1-1.14,4.33,4.62,4.62,0,0,1-3.84,1.89c-2,0-3.47-.78-3.47-2.59m-2.79-9.15a11,11,0,0,1,6.5-2.29c3.24,0,4.74,1.15,4.74,4.53h-3a16.65,16.65,0,0,0-7.09,1.23,6.21,6.21,0,0,0-3.58,6c0,4,3.64,6.26,7.35,6.26a7.53,7.53,0,0,0,6.51-3.64h.08a26.25,26.25,0,0,0,.24,3.15h4.83c-.12-1.63-.21-3.11-.25-4.71s-.08-3.15-.08-5.27v-2.7c0-6.21-2.65-8.88-9.08-8.88a18.85,18.85,0,0,0-7.31,1.6Z"/><rect class="cls-1" x="390.35" y="314.71" width="5.48" height="30.68"/><path class="cls-2" d="M400.7,320.48h5.48v-5.24H400.7Zm0,24.91h5.48V324.34H400.7Z"/><path class="cls-2" d="M414.81,339.29c0-3.23,3.64-3.63,6.09-3.63h2.36a7,7,0,0,1-1.13,4.33,4.64,4.64,0,0,1-3.84,1.89c-2,0-3.48-.78-3.48-2.59M412,330.14a11,11,0,0,1,6.49-2.29c3.24,0,4.74,1.15,4.74,4.53h-3a16.61,16.61,0,0,0-7.08,1.23,6.2,6.2,0,0,0-3.6,6c0,4,3.64,6.26,7.37,6.26a7.54,7.54,0,0,0,6.5-3.64h.08a26.25,26.25,0,0,0,.24,3.15h4.83c-.13-1.63-.2-3.11-.25-4.71s-.08-3.15-.08-5.27v-2.7c0-6.21-2.66-8.88-9.07-8.88a18.91,18.91,0,0,0-7.33,1.6Z"/><path class="cls-1" d="M173.35,276.62a28,28,0,0,0-8.38-1.19c-9.7,0-15.67,5.49-15.67,15.25S155.73,305,165,305a36,36,0,0,0,9.25-1.48V288.12H162.68v4.49h6.06v7.44a15.4,15.4,0,0,1-3.77.41c-6.09,0-9.7-4.37-9.7-10.18s3.69-10.34,10.35-10.34a18.48,18.48,0,0,1,7.36,1.51l.37-4.83"/><path class="cls-2" d="M183.1,293.43c0-3.15,1.72-6.26,5.28-6.26s5.32,3,5.32,6.26c0,3.52-1.11,7.28-5.32,7.28s-5.28-3.8-5.28-7.28m-5.72.66c0,6,4.05,10.88,11,10.88s11-4.84,11-10.88c0-7-4.79-11.17-11-11.17s-11,4.21-11,11.17"/><polygon class="cls-1" points="208.18 304.47 214.35 304.47 222.13 283.41 216.65 283.41 211.57 298.75 211.49 298.75 206.25 283.41 200.37 283.41 208.18 304.47"/><path class="cls-2" d="M241.31,298.83a14.29,14.29,0,0,1-7,2.13c-3.4,0-5.76-1.93-6-5.33h14.56c0-7.36-2.21-12.72-10-12.72-6.54,0-9.78,5-9.78,11.13,0,6.92,4.05,10.93,11,10.93a14.48,14.48,0,0,0,7.23-1.68v-4.46m-13-7c.25-2.82,1.8-4.94,4.86-4.94s4.31,2.29,4.46,4.94Z"/><path class="cls-1" d="M246.26,304.47h5.48v-7.73c0-3,0-8.58,4.47-8.58a5.54,5.54,0,0,1,2.45.45v-5.52a5.48,5.48,0,0,0-1.68-.18c-3.27,0-5.52,3.32-5.76,5.28h-.08v-4.78h-4.88v21.06"/><path class="cls-1" d="M261.77,304.47h5.48V294.16c0-2.69.87-7,4.83-7,3.52,0,3.55,3.48,3.55,6.06v11.24h5.49V291.18c0-4.74-2.17-8.27-7.16-8.27a7.9,7.9,0,0,0-6.92,3.36H267v-2.86h-5.2v21.06"/><path class="cls-1" d="M285.67,304.47h5.48V294.25c0-2.75.44-7.08,4.08-7.08,3.16,0,3.16,2.78,3.16,4.74v12.56h5.48V294.25c0-2.75.44-7.08,4.09-7.08,3.14,0,3.14,2.78,3.14,4.74v12.56h5.48V291.18c0-4.7-1.46-8.27-6.67-8.27a7.23,7.23,0,0,0-6.58,3.73c-1.19-2.62-3.26-3.73-6.21-3.73a7.41,7.41,0,0,0-6.26,3.44h-.08v-2.94h-5.11v21.06"/><path class="cls-2" d="M338,298.83a14.26,14.26,0,0,1-7,2.13c-3.4,0-5.77-1.93-6-5.33h14.56c0-7.36-2.2-12.72-10-12.72-6.54,0-9.77,5-9.77,11.13,0,6.92,4.05,10.93,11,10.93a14.52,14.52,0,0,0,7.24-1.68v-4.46m-13-7c.25-2.82,1.8-4.94,4.87-4.94s4.29,2.29,4.46,4.94Z"/><path class="cls-1" d="M342.82,304.47h5.48V294.16c0-2.69.86-7,4.83-7,3.52,0,3.55,3.48,3.55,6.06v11.24h5.49V291.18c0-4.74-2.17-8.27-7.16-8.27a7.89,7.89,0,0,0-6.92,3.36H348v-2.86h-5.2v21.06"/><path class="cls-1" d="M368.6,298.13c0,4.17,2.37,6.84,6.66,6.84a14.25,14.25,0,0,0,4.05-.5l-.16-4.34a4.86,4.86,0,0,1-2.5.58c-2.08,0-2.58-1.68-2.58-3.48v-9.81h4.87v-4h-4.87v-6l-5.47,1.76v4.21h-4.05v4h4.05v10.71"/><path class="cls-2" d="M396.41,293.43c0-3.15,1.73-6.26,5.28-6.26s5.31,3,5.31,6.26c0,3.52-1.11,7.28-5.31,7.28s-5.28-3.8-5.28-7.28m-5.72.66c0,6,4,10.88,11,10.88s11-4.84,11-10.88c0-7-4.79-11.17-11-11.17s-11,4.21-11,11.17"/><path class="cls-1" d="M418,304.47h5.49V287.42h4.77v-4H423.5V280.8c0-1.64.57-3.24,2.4-3.24a4.17,4.17,0,0,1,2.37.74l.46-4.55a20.44,20.44,0,0,0-4-.45c-4.33,0-6.71,2.95-6.71,7.17v2.94h-4v4h4v17.05"/><path class="cls-2" d="M97.09,297.66c5.29,11,2.7,25.63-5.77,34.38a32,32,0,0,1-31.49,9c-11.41-2.48-21.57-13.79-23.15-25.29-2.12-12.52,3.07-23.81,13.09-31.13,9.17-6.93,24.4-7.41,34.16-1.41a32.53,32.53,0,0,1,13.16,14.43m-.81-.53c5.39,10.41,3.33,24.93-4.44,33.57a31.31,31.31,0,0,1-31.65,9.91c-10.7-2.12-20.49-12.6-22.62-23.14-3-12.86,2.2-25.14,12.79-32.62,8.89-6.47,23.26-7.07,32.76-1.47a32.09,32.09,0,0,1,13.16,13.75"/><path class="cls-2" d="M33.87,322.42a45,45,0,0,1,2.37,4.3c-.55.23-.63-.61-1.11-.75l-.74.15L27.52,330a2.89,2.89,0,0,0-1.19,2.3,3.8,3.8,0,0,0,2.22,3.4c3.07.26,5.39-2.18,8.06-3.4a2.32,2.32,0,0,0,1.11-1.78l-.15-1h.29l2.08,3.76-.15.16a2.48,2.48,0,0,0-2.52-.82l-6.72,3.55a3.56,3.56,0,0,1-3.56-1,6.38,6.38,0,0,1-1.69-5.32,3.39,3.39,0,0,1,1.77-2l6.51-3.63c.68-.48-.06-1.18.07-1.7h.22"/><path class="cls-1" d="M101.52,323.53c0,.67-.49,1.62.53,1.85l8.79,4c.71,0,.71-1.18,1.33-.88-.69,1.48-1.28,3.06-2.07,4.44h-.21c0-.52.32-1.07,0-1.57l-9.17-4.28c-.71-.11-.83.87-1.41,1a30.78,30.78,0,0,1,2-4.51h.21"/><path class="cls-1" d="M94.06,335c.11.54-.81.93-.37,1.62l7.25,6.73c.92.43,1.52-.7,2-1.26,1.15-1.55.75-4.12-.22-5.61.05-.14.2-.07.3-.08l2.58,3.55c-2.1,2.27-4.17,4.49-6.43,6.58-.07,0-.1,0-.15-.07.08-.52.68-.93.45-1.49l-7.32-6.87c-.65-.46-1.24,1-1.55.21L93.84,335h.22"/><path class="cls-2" d="M46.37,338.76a2.35,2.35,0,0,0,.74,1.12l.67-.15v.44c-.77,1-1.45,2.11-2.3,3.1h-.22c.42-1.58,1.5-3.82-.07-5.32a2.65,2.65,0,0,0-1.7-.81,2.2,2.2,0,0,0-1.78,1.33c-.37,3.11,4,5.73,1,8.72a3.58,3.58,0,0,1-2.8,1c-1.93-.15-3.46-1.79-4.36-3.4-.3-.37-.66-.22-1-.16v-.36l3.18-3.63h.22c-.74,1.65-2,3.61-.89,5.48a3.47,3.47,0,0,0,2.3,1.41,2.45,2.45,0,0,0,2.14-1.34c.85-3.31-4.62-6.44-.45-9.24a4,4,0,0,1,5.33,1.77"/><path class="cls-1" d="M53.1,342.84a58.71,58.71,0,0,0,8.13,2.58,25.43,25.43,0,0,1-.67,4.22c-.37-.42-.18-1.19-.44-1.7a4.21,4.21,0,0,0-2.58-3L54,354.74c.11.72,1,.68,1.32,1.18l-.14.14c-1.72-.6-3.5-1.12-5.18-1.84v-.15c.52-.11,1.13.22,1.7,0,1.46-3.16,2.46-6.5,3.7-9.76,0-.24-.22-.3-.37-.36A5.82,5.82,0,0,0,50.14,346c-.33-.06,0-.35,0-.52l2.07-3.25.89.6"/><path class="cls-2" d="M20.78,310.6c2.72,1.75,6.07,2,9.1,3,.93-1.1,1.81.58,2.88.44l.15.14c-3.6,2-7.25,4.23-10.87,6.36-.62.26-.2,1.17-.73,1.26-.27-1.52-.41-3.18-.53-4.67,0-.12.21,0,.3-.06.23.37.1,1.11.74,1.11A11.62,11.62,0,0,0,25,316.29l-.37-3.63c-1-.31-2.25-1-3.32-.29-.65.29-.25,1.22-.89,1.33a31,31,0,0,1-.45-4.13c.54,0,.46.7.81,1m8.51,3.24A20.59,20.59,0,0,1,25.52,316l-.3-3.19Z"/><path class="cls-2" d="M74,347.05a2.74,2.74,0,0,1,.59,2.44c-.49,1.42-2,2-3.25,2.36A4.19,4.19,0,0,1,74,353.92c.79,1.16,1.22,3.31,3.1,3.19v.21a33,33,0,0,1-3.32.16c-1.24-1.73-1.81-3.93-3.7-5.18a3.69,3.69,0,0,0-1.11-.08l-.15.23L69,356.8c.32.51.9.41,1.4.52.11.3-.22.41-.44.38l-4.44.14-.15-.14c.32-.52,1.18-.15,1.41-.9L66.41,347c-.24-.72-1.1-.42-1.48-.81l.22-.15c3,.13,6.56-1.09,8.87,1m-2.51-.3a3.76,3.76,0,0,1,.37,4c-.74,1-1.92.86-3,.95a28.49,28.49,0,0,1-.15-5.39c1,0,2-.15,2.81.44"/><path class="cls-2" d="M93.69,350.59v.15c-1.42.67-2.83,1.39-4.28,1.93-.13-.52,1.12-.69.66-1.41L87.48,349a18.38,18.38,0,0,0-3.55,1.77c.21,1.16,0,2.69,1.4,3.18h1v.23a28.6,28.6,0,0,1-3.84,1.62,4.2,4.2,0,0,0,1.18-3.48l-.45-6.8c-1.42-.44-.05-1.92-.59-2.95l.15-.16,9.76,8.21h1.11m-6.73-2L84.08,350a26.29,26.29,0,0,1-.37-4.22A39.8,39.8,0,0,1,87,348.6"/><path class="cls-2" d="M115.94,309.78c0,1.48-.23,3.05-.36,4.58l-.22.08c-.28-.37,0-1-.52-1.26a9.87,9.87,0,0,0-3.63,1.11l-.37,3.62c1,.57,1.9,1.31,3.11,1,.68-.15.64-1.05,1.26-1.18a19.25,19.25,0,0,1-.53,4.21,3.93,3.93,0,0,0-1.84-2.44L106,315.92c-1.12,1-1.73-1-2.81-1v-.23q6.1-1.83,12.13-3.92c.45-.22.17-.89.66-1m-5.54,7.83a24,24,0,0,1-3.78-1.84,23.94,23.94,0,0,1,4.07-1.33Z"/><path class="cls-1" d="M73.58,262.83c-.17.46-.85.33-1.19.73-1,.92-.68,2.33-.74,3.63-.22,2.44,1.13,6.47-2.14,7.55a6.94,6.94,0,0,1-5.54-.67,3.44,3.44,0,0,1-1.26-2.74l-.22-7.54c-.28-.69-1.21-.17-1.41-.74a38.43,38.43,0,0,1,5-.15c.07.64-.78.28-1.11.6l-.29.44.22,8.28a2.8,2.8,0,0,0,1.55,1.92A4,4,0,0,0,70,274a3.37,3.37,0,0,0,1.25-3c-.33-2.35.45-5.15-.66-7.17-.39-.55-1.15-.57-1.48-1l.52-.15c1.31.24,2.6-.16,3.92.08"/><path class="cls-1" d="M89.77,267.7h.52a26.54,26.54,0,0,1-.88,4.22c-.19-.63-.28-1.44-.45-2.14A4.37,4.37,0,0,0,86.67,267c-1.48,3.2-2.7,6.49-4,9.77.15.68.89.8,1.34,1.25-.08.24-.48.16-.67.07-1.5-.72-3.1-1.22-4.58-2,.23-.33.88,0,1.33,0,.74.09.77-.76,1-1.18,1-3,2.38-5.77,3.4-8.73-2-.81-3.86.47-5.39,1.62a18.76,18.76,0,0,1,2.28-3.62l1,.67,7.4,2.8"/><path class="cls-1" d="M101,275.76c0,.1.06.24-.07.3-.58,0-.89-.87-1.56-.44l-3,3.1c1,1.35,2.3,2.24,3.4,3.48H100c.84-1.5,4.31-2.64,2.52-4.51.17-.35.41,0,.6.07l3.1,3.18-.15.22c-.55,0-.91-.84-1.56-.44L97.39,288c-.15.57.53.81.51,1.33h-.37c-1.08-1.13-2.32-2.2-3.25-3.4.59-.32,1.31,1.11,1.93.08l3.25-3.27a49,49,0,0,0-3.4-3.53h-.23l-3.54,3.61c-.4.59,1,1.18.22,1.49l-3.33-3.34v-.22c.57-.07,1.13,1,1.77.29l7-7c.38-.7-1-1.24-.22-1.55l3.33,3.32"/><path class="cls-2" d="M38.24,278.06v.3c-1.58-.6-3.64-1.74-5.25-.44a2.86,2.86,0,0,0-1.11,1.92,2.59,2.59,0,0,0,1.18,1.7c3,.51,5.34-2.86,8.36-1.11A4.13,4.13,0,0,1,43,283.16a4.7,4.7,0,0,1-2.37,4.14A4.16,4.16,0,0,0,39,288.41c0,.23.09.39.15.59l-.15.15a38.91,38.91,0,0,1-3.84-3.55l.15-.15c1.49.91,3.12,1.94,5,1.4a3.22,3.22,0,0,0,1.93-2.66,2.54,2.54,0,0,0-1.33-2c-3.22-.76-7.6,4.61-9.54-.59a4.06,4.06,0,0,1,1.34-4.07c.68-.77,2.47-.65,2.14-2.07h.22l3.18,2.59"/><path class="cls-2" d="M55.69,269.86a6.4,6.4,0,0,1-.15,5.84A6.75,6.75,0,0,1,50.36,279a6.56,6.56,0,0,1-5.54-2.43,6.33,6.33,0,0,1,4.36-10.14,6.54,6.54,0,0,1,6.51,3.41m-1.63,2.44c.54,1.38.65,3.52-.37,4.72a4.46,4.46,0,0,1-2.81,1.34c-3.12-.19-4.57-3.67-5.32-6.14a4.27,4.27,0,0,1,.81-4,3.66,3.66,0,0,1,3.77-.88c2,.83,3.2,3.07,3.92,5"/><path class="cls-1" d="M14.13,289.94a58,58,0,0,1,108.3,0l-5.87,2.18a51.68,51.68,0,0,0-96.54,0l-5.89-2.22"/><path class="cls-1" d="M17.48,319.87a51.64,51.64,0,0,0,101.59,0l6.19,1.17a57.95,57.95,0,0,1-114,0l6.2-1.18"/><path class="cls-2" d="M73,324.71a13.9,13.9,0,0,1,2,1.92c-1.53-.12-3.66.76-4.58-1l.59-1.77c.54.62,1.33.59,2,.88m-7.69.75c-.8,1.66-2.87,1.44-4.51,1.33.09-.54.9-1,1.4-1.41,1.15.28,3-2.68,3.11.08m-3.7,4.81h-.23c.12-1,1.44-1.54,2.15-2.3l1.48-1c-.94,1.26-2.33,2.07-3.4,3.34M70,326.93a48.58,48.58,0,0,1,3.92,4.52.54.54,0,0,1-.23.59c-1.28-1.77-2.8-3.26-3.91-5.11Zm4.43,3.48v.22a28.77,28.77,0,0,1-3.62-3.7,27,27,0,0,1,3.62,3.48M72.69,332c0,.19.09.42-.15.51-.89-1.7-2.8-3.18-3.1-5.1Zm2.37-4.14c-.08.24-.11.49-.37.66-.7.28-1.19-.44-1.7-.81.53-.17,1.62-.36,2.07.15m2.81-.15c0,.35-.38.64-.67.74a.89.89,0,0,1-1-.22c-.09-.41.24-.56.51-.67.4.06.89-.13,1.19.15m3.1.15c-.22,1.21-1.78.44-2.66.66,0-.5.61-.72,1-1,.58.09,1.39-.24,1.7.3m-21.59-.15a.54.54,0,0,1-.36.81c-.54-.05-.89.13-1.34-.15a1.35,1.35,0,0,1,.45-.66,2.41,2.41,0,0,1,1.25,0m3,0c-.42.24-.85,1.33-1.62.81-.06-.37.33-.63.58-.81a1.68,1.68,0,0,1,1,0m-.29,3.7H62c.46-1.53,2.15-2.59,3.26-3.77-.43,1.42-2.42,2.3-3.11,3.77m4-3.77c-.52,1.67-2,3-2.74,4.58-.13.05-.19-.08-.29-.15a20,20,0,0,1,3-4.43M65,333.15c-.22.2-.5-.1-.59-.3.41-1.87,1.48-3.45,2.22-5.17-.15,1.88-1.1,3.63-1.63,5.47m-7.91-5.25c0,.35-.37.64-.67.73-.64,0-1.66.31-2.07-.29.25-1.09,1.73-.39,2.59-.59Zm11.83.07c.63,1.57,1.87,2.9,2.22,4.58.07.26-.24.58-.45.52-.49-1.76-1.62-3.25-1.92-5.1Zm-1.63.37c0,1.58.8,3.84-1,4.87h-.22a12.42,12.42,0,0,1,1.18-4.87m1,0a12.33,12.33,0,0,1,.89,5c-2.17-.92-.83-3.37-1.11-5ZM81.88,321c-.22.4-.37.83-.83.69s-.67-.62-1.11-.37a5.09,5.09,0,0,1-.75.88c-.51-.08-1-.75-1.54-.28-.27.26-.5.56-.89.51-.26-.38-.77-1-1.26-.51a.75.75,0,0,1-1,.07,2.11,2.11,0,0,1-.72-1Zm-10.82,0a.38.38,0,0,1-.07.17,8.22,8.22,0,0,1-1.18,2.37l.37.23a7.55,7.55,0,0,1-2.29,3.84c-1.47-.88-2-2.55-2.44-4.07H66a9.44,9.44,0,0,0-1-2.22.67.67,0,0,1-.1-.32h-1a2.9,2.9,0,0,1-.57,2.25c-1.77,1.27-3,4.12-5.76,3.25-1.11,1-3.14-.16-4,1.26a1.39,1.39,0,0,0,.3,1.41,4,4,0,0,0,2.36.21,1.87,1.87,0,0,0,1.33.37c.46-.72,1,0,1.47.08s1-.65,1.48-.29A7.48,7.48,0,0,0,59.31,332c-.06.66,1,.48.73,1.25.18.57.79.37,1.11.67.05,1,1.12.7,1.71,1,.19,1.66,2-.22,2.37,1.33.38,0,.68-.26,1-.37.44.05.78.56,1,.89.74.59,1-.39,1.56-.74l1.33.51.89-1c1,.76,1.4-.76,2.36-.45.67.08.59-.67.88-1,1.15.17,1-1.42,2.08-1.41.07-1.28-1.09-2.05-1.41-3.17.45-.27.8.12,1.12.37.68.22,1-.36,1.55-.52.94,1.46,1.89-.55,3.1-.14a1.35,1.35,0,0,0,1-1.41c-.12-.3-.31-.69-.66-.74-1.83.22-3.07-1-5-.67L73,323.39A2.46,2.46,0,0,1,72,321Zm-8.67,0a2.17,2.17,0,0,1-.64.92,2.3,2.3,0,0,0-2.37.43c-.61-.15-.89-1.27-1.62-.88-.39.3-.71,1-1.26.67-.28-.3-.42-.7-.81-.89-.52,0-1.13.67-1.56,0,0-.08-.1-.17-.15-.25Z"/><path class="cls-2" d="M58.65,295.51c0,1.11.29,2.22-.23,3.18.17-1.06-1.53-2.54.23-3.18m20.4,1.62c-.17.62-.61,1.29-.29,1.93.41-.26.36-1,.88-1.12a4.81,4.81,0,0,1-.88,2.37,6.65,6.65,0,0,1-.3-3.91c.42,0,.39.49.59.73m-21.22,2.45c-.41-.62-1.09-1.53-.59-2.3.46.59.39,1.54.59,2.3m22.62-.75a4.76,4.76,0,0,1-1.18,2h-.08a3.47,3.47,0,0,1,1.26-2m-22.84,1.56a10.49,10.49,0,0,0-.23,4.36,2.45,2.45,0,0,1-1.26-.51,1.4,1.4,0,0,1-.22-.9c.38-.16.71.63,1.12.15-.1-.71-1-.95-1.26-1.62.53-.38,1.05.78,1.4,0-.22-.63-1.45-.87-1.1-1.7l.74.37c0-.61-.56-1.06-.38-1.63a5.9,5.9,0,0,1,1.19,1.48m23.28.22c-.14.72-1,1.23-1.62,1.7-.24-.82.74-1.49,1.33-2.14.24,0,.36.24.29.44m.08,1.93c-.33.51-1,.49-1.55.66A2.5,2.5,0,0,1,81,302c.33.12,0,.34,0,.52m-.44,1.1c0,.7-.78.37-1.11.67-.2-.43.5-.67.82-.82.1,0,.31,0,.29.15m-14.2,1.92c-.16.38.09,1.06-.51,1.12a3.07,3.07,0,0,1-1.34-.59c.51-.25,1.24.49,1.7-.08.1-.77-.66-1.17-1.1-1.7a1.16,1.16,0,0,1,1.25,1.25m-5.62,2.9a3.37,3.37,0,0,1,1.19,2.06,1.78,1.78,0,0,1-.89,1.63.47.47,0,0,1-.52-.52c-.13-.25.28-.44-.07-.59-.39.25-.74.79-1.26.51-.18-.51.3-.94.44-1.39-.58-.08-1,.9-1.77.44-.16-.63.36-1,.66-1.42-.59-.32-1,.35-1.62,0,0-.53.94-.71,1.4-1.1-.4-.28-1.05-.65-1.11-1.26.69-.37,1.15.7,1.78.22,0-.55-.65-1-.29-1.55.25.11.43.39.66.6.46-.13,0-.6.07-.9.66.92.11,2.5,1.33,3.27m16.86-2.3c.41-.05.41-.56.89-.45.37.78-1.22,1.08-.52,1.63.41-.14.89-.61,1.33-.22,0,.61-.81.61-1,1.11a2.07,2.07,0,0,1,1.63.8c.11.31-.22.41-.44.38-.56.12-1.14-.23-1.56,0,.33.58,1.2.67,1.11,1.48-.76.3-1.24-.49-1.92-.6-.19.54.7.82.59,1.41-.68.23-1.18-.45-1.7-.74-.13.35.11.72.29,1A1,1,0,0,1,75,311.4c-.74-1,.65-1.77,1-2.66,1-.95,1-2.34,1.54-3.47.13.33-.27.63.08.89M67.74,306c0,.15,0,.39-.23.29h-.22v-.44c.15.06.45-.13.45.15M54,321c-.21-.34-.49-.71-1-.42a1.8,1.8,0,0,1-1.1.22l-.75-1.25c-.66-.26-1.7.59-1.84-.44-.06-.32-.12-.85-.59-.75-.82,0-1.73.4-2.45-.07.06-.68.47-1.33.52-1.92-.76-.18-2,.13-2.51-.59a7.69,7.69,0,0,1,.52-1.85,10.72,10.72,0,0,1-2.81-.59c-.18-.69.42-1.2.73-1.78-.62-.48-1.47-.51-2-1.1,0-1,1.09-1.43,1.63-2.15-.41-.7-1.26-1-1.78-1.7a6.54,6.54,0,0,1,2-1.85c-.43-.84-1.54-1.33-1.63-2.21a3.83,3.83,0,0,1,2-.89l.22-.23c-.39-.64-1.09-1.15-1.33-1.84,1-.41,2.23-.1,3.17-.59-.27-.87-1.34-1.41-1.54-2.3,1-.58,2.11.13,3.1,0A4.17,4.17,0,0,1,45,293.81c.66-.45,1.25.16,1.85.29a21.79,21.79,0,0,0,2.89,1.56l.15-.15c-.82-1.33-2.63-2.34-2.44-4,2,.36,3.51,1.81,5.25,3,.06-.64-.63-1.15-.81-1.78-.49-1.27-1.43-2.37-1.26-3.91.81,0,1.49.92,2.07,1.54l1.7,2.37c.51-.83-.3-1.48-.45-2.21,0-1.32-.72-2.76.08-3.92,1.2.27,1.38,1.75,1.84,2.73a12.58,12.58,0,0,0,.82,2.74c0-1.82.44-3.62.08-5.4a2.76,2.76,0,0,1,1.25-1.93l.3.6a17.21,17.21,0,0,1,.22,3.4l.15.14c.48-.17.55-.84,1.11-.88,1.32,3.94-.51,7.86-1,11.68a13.49,13.49,0,0,0,1.56,5.84c-.48,1.81,1.66,2.54,1.85,4.07.38.61,1,.09,1.55.15s.79.86,1.41.44c.88-.55.77-1.63.66-2.51-.74-1-2.22-1.13-2.67-2.36a5.29,5.29,0,0,1,2.23.36l.14-.15a5.41,5.41,0,0,0-2.22-1.7c.37-.38,1.19-.2,1.71-.14,2.36.94,5.41,1.68,6.43,4.51.2.61.16,1.33.59,1.85.77-.17,1.57.35,2.21-.15,2.86-2.43,2-6.35,3.56-9.32A101.88,101.88,0,0,1,77.49,288a.29.29,0,0,1,.45-.07c.21.19.26.59.59.59.38-1,0-2.36.89-3.19.83.23,1.11,1.2,1.18,2v3l.15.14c.52-1.2.84-2.52,2-3.39.27-.19.54.14.51.44-.16,1.74-.12,3.59-1.18,4.95,0,.32,0,.65.23.89,1.15-1.44,2.15-3.63,4.14-4.22.66,1.05-.23,2.22-.67,3.18a10.85,10.85,0,0,0-1.63,2.52l.14.15a10.32,10.32,0,0,1,5.12-3.63c.38.43-.1.83-.15,1.26-.82.62-.71,1.6-1.34,2.29-.67.86-1.62,1.31-2.22,2.08.81-.15,1.52-1,2.37-1.34a7.82,7.82,0,0,1,3.77-1.18c.31.84-.83,1.39-1.41,1.92A4.83,4.83,0,0,0,89,297.8c1.3-.2,2.77-1.16,4.21-.59-.22.94-1.23,1.37-1.7,2.22.36.29.83,0,1.26,0,.63.09,1.31.05,1.78.59-.15.89-1.34,1.14-1.71,1.92.74.42,1.72.31,2.37,1v.37l-1.63,1.48.07.23a7.48,7.48,0,0,1,2.52,1.7l-.07.36c-.71.46-1.46.76-2.15,1.26.32.67,1.37.95,1.4,1.78L93,311.19c.18.74,1.14,1.44.88,2.37-.79.25-1.77.06-2.51.44a4.53,4.53,0,0,1,.59,2c-.87.28-2,0-2.73.52a2.24,2.24,0,0,1-.38,1.68l-1.55.08-1,1.41c-.74.12-1.48-.61-2.08.08l-.58,1c-.55,0-.95-.31-1.48-.29a1.16,1.16,0,0,0-.35.49H73.75a10,10,0,0,0-.76-2.48c-.32-.16-.56.21-.6.44A12.12,12.12,0,0,0,72,321l-.9,0c.12-.5-.35-1.44.52-1.3l.3-1.85a11.65,11.65,0,0,1-.82-8,2.77,2.77,0,0,0-1.4-2.65c-.72.32-.42,1.32-.81,1.92a3.52,3.52,0,0,1-3.11,1.77c-.92-.08-.24.78-.44,1.26.18,2.74-2.33,5-.89,7.62l.15-.15c.77,0,.3.77.34,1.37h-1a26.77,26.77,0,0,0-.79-2.92c-.29,0-.36.3-.44.51a8.26,8.26,0,0,1-.32,2.41Z"/><rect class="cls-1" x="10.2" y="310.11" width="6.26" height="1.59"/><polygon class="cls-1" points="10.28 308.97 10.34 307.41 16.56 307.65 16.5 309.22 10.28 308.97"/><polygon class="cls-1" points="10.45 306.36 10.58 304.81 16.77 305.31 16.64 306.87 10.45 306.36"/><polygon class="cls-1" points="10.74 303.76 10.93 302.21 17.08 302.95 16.89 304.5 10.74 303.76"/><polygon class="cls-1" points="11.13 301.16 11.38 299.62 17.5 300.6 17.25 302.14 11.13 301.16"/><rect class="cls-1" x="13.94" y="295.3" width="1.56" height="6.2" transform="translate(-280.68 253.71) rotate(-78.57)"/><rect class="cls-1" x="14.55" y="292.86" width="1.57" height="6.23" transform="translate(-275.87 240.87) rotate(-76.32)"/><polygon class="cls-1" points="13.27 291.93 19.28 293.64 18.84 295.17 12.84 293.44 13.27 291.93"/><rect class="cls-1" x="119.91" y="310.1" width="6.25" height="1.59"/><polygon class="cls-1" points="126.09 308.97 126.03 307.41 119.81 307.65 119.87 309.22 126.09 308.97"/><rect class="cls-1" x="119.65" y="305.06" width="6.21" height="1.56" transform="translate(-24.3 10.91) rotate(-4.63)"/><polygon class="cls-1" points="125.62 303.76 125.44 302.21 119.28 302.95 119.47 304.5 125.62 303.76"/><polygon class="cls-1" points="125.24 301.16 124.98 299.62 118.87 300.6 119.12 302.14 125.24 301.16"/><polygon class="cls-1" points="124.85 298.54 124.53 297.02 118.45 298.25 118.77 299.78 124.85 298.54"/><polygon class="cls-1" points="124.24 296 123.86 294.48 117.82 295.95 118.2 297.47 124.24 296"/><rect class="cls-1" x="117.19" y="292.75" width="6.26" height="1.58" transform="translate(-76.04 44.37) rotate(-15.95)"/></g></g></svg>